<svg xmlns="http://www.w3.org/2000/svg" xmlns:xlink="http://www.w3.org/1999/xlink" version="1.1" class="marks" width="188" height="807" viewBox="0 0 188 807"><rect width="188" height="807" fill="white"/><g fill="none" stroke-miterlimit="10" transform="translate(7,53)"><g class="mark-group role-frame root" role="graphics-object" aria-roledescription="group mark container"><g transform="translate(0,0)"><path class="background" aria-hidden="true" d="M0,0h0v0h0Z"/><g><g class="mark-group role-row-header row_header" role="graphics-object" aria-roledescription="group mark container"><g transform="translate(-1,0)"><path class="background" aria-hidden="true" d="M0,0h0v60h0Z"/><g><g class="mark-group role-axis" role="graphics-symbol" aria-roledescription="axis" aria-label="Y-axis for a discrete scale with 3 values: Easy, Medium, Hard"><g transform="translate(0.5,0.5)"><path class="background" aria-hidden="true" d="M0,0h0v0h0Z" pointer-events="none"/><g><g class="mark-rule role-axis-tick" pointer-events="none"><line transform="translate(0,10)" x2="0" y2="0" stroke="#888" stroke-width="1" opacity="1"/><line transform="translate(0,30)" x2="0" y2="0" stroke="#888" stroke-width="1" opacity="1"/><line transform="translate(0,50)" x2="0" y2="0" stroke="#888" stroke-width="1" opacity="1"/></g><g class="mark-rule role-axis-domain" pointer-events="none"><line transform="translate(0,0)" x2="0" y2="60" stroke="#888" stroke-width="1" opacity="1"/></g></g><path class="foreground" aria-hidden="true" d="" pointer-events="none" display="none"/></g></g></g><path class="foreground" aria-hidden="true" d="" display="none"/></g><g transform="translate(-1,82)"><path class="background" aria-hidden="true" d="M0,0h0v60h0Z"/><g><g class="mark-group role-axis" role="graphics-symbol" aria-roledescription="axis" aria-label="Y-axis for a discrete scale with 3 values: Easy, Medium, Hard"><g transform="translate(0.5,0.5)"><path class="background" aria-hidden="true" d="M0,0h0v0h0Z" pointer-events="none"/><g><g class="mark-rule role-axis-tick" pointer-events="none"><line transform="translate(0,10)" x2="0" y2="0" stroke="#888" stroke-width="1" opacity="1"/><line transform="translate(0,30)" x2="0" y2="0" stroke="#888" stroke-width="1" opacity="1"/><line transform="translate(0,50)" x2="0" y2="0" stroke="#888" stroke-width="1" opacity="1"/></g><g class="mark-rule role-axis-domain" pointer-events="none"><line transform="translate(0,0)" x2="0" y2="60" stroke="#888" stroke-width="1" opacity="1"/></g></g><path class="foreground" aria-hidden="true" d="" pointer-events="none" display="none"/></g></g></g><path class="foreground" aria-hidden="true" d="" display="none"/></g><g transform="translate(-1,164)"><path class="background" aria-hidden="true" d="M0,0h0v60h0Z"/><g><g class="mark-group role-axis" role="graphics-symbol" aria-roledescription="axis" aria-label="Y-axis for a discrete scale with 3 values: Easy, Medium, Hard"><g transform="translate(0.5,0.5)"><path class="background" aria-hidden="true" d="M0,0h0v0h0Z" pointer-events="none"/><g><g class="mark-rule role-axis-tick" pointer-events="none"><line transform="translate(0,10)" x2="0" y2="0" stroke="#888" stroke-width="1" opacity="1"/><line transform="translate(0,30)" x2="0" y2="0" stroke="#888" stroke-width="1" opacity="1"/><line transform="translate(0,50)" x2="0" y2="0" stroke="#888" stroke-width="1" opacity="1"/></g><g class="mark-rule role-axis-domain" pointer-events="none"><line transform="translate(0,0)" x2="0" y2="60" stroke="#888" stroke-width="1" opacity="1"/></g></g><path class="foreground" aria-hidden="true" d="" pointer-events="none" display="none"/></g></g></g><path class="foreground" aria-hidden="true" d="" display="none"/></g><g transform="translate(-1,246)"><path class="background" aria-hidden="true" d="M0,0h0v60h0Z"/><g><g class="mark-group role-axis" role="graphics-symbol" aria-roledescription="axis" aria-label="Y-axis for a discrete scale with 3 values: Easy, Medium, Hard"><g transform="translate(0.5,0.5)"><path class="background" aria-hidden="true" d="M0,0h0v0h0Z" pointer-events="none"/><g><g class="mark-rule role-axis-tick" pointer-events="none"><line transform="translate(0,10)" x2="0" y2="0" stroke="#888" stroke-width="1" opacity="1"/><line transform="translate(0,30)" x2="0" y2="0" stroke="#888" stroke-width="1" opacity="1"/><line transform="translate(0,50)" x2="0" y2="0" stroke="#888" stroke-width="1" opacity="1"/></g><g class="mark-rule role-axis-domain" pointer-events="none"><line transform="translate(0,0)" x2="0" y2="60" stroke="#888" stroke-width="1" opacity="1"/></g></g><path class="foreground" aria-hidden="true" d="" pointer-events="none" display="none"/></g></g></g><path class="foreground" aria-hidden="true" d="" display="none"/></g><g transform="translate(-1,328)"><path class="background" aria-hidden="true" d="M0,0h0v60h0Z"/><g><g class="mark-group role-axis" role="graphics-symbol" aria-roledescription="axis" aria-label="Y-axis for a discrete scale with 3 values: Easy, Medium, Hard"><g transform="translate(0.5,0.5)"><path class="background" aria-hidden="true" d="M0,0h0v0h0Z" pointer-events="none"/><g><g class="mark-rule role-axis-tick" pointer-events="none"><line transform="translate(0,10)" x2="0" y2="0" stroke="#888" stroke-width="1" opacity="1"/><line transform="translate(0,30)" x2="0" y2="0" stroke="#888" stroke-width="1" opacity="1"/><line transform="translate(0,50)" x2="0" y2="0" stroke="#888" stroke-width="1" opacity="1"/></g><g class="mark-rule role-axis-domain" pointer-events="none"><line transform="translate(0,0)" x2="0" y2="60" stroke="#888" stroke-width="1" opacity="1"/></g></g><path class="foreground" aria-hidden="true" d="" pointer-events="none" display="none"/></g></g></g><path class="foreground" aria-hidden="true" d="" display="none"/></g><g transform="translate(-1,410)"><path class="background" aria-hidden="true" d="M0,0h0v60h0Z"/><g><g class="mark-group role-axis" role="graphics-symbol" aria-roledescription="axis" aria-label="Y-axis for a discrete scale with 3 values: Easy, Medium, Hard"><g transform="translate(0.5,0.5)"><path class="background" aria-hidden="true" d="M0,0h0v0h0Z" pointer-events="none"/><g><g class="mark-rule role-axis-tick" pointer-events="none"><line transform="translate(0,10)" x2="0" y2="0" stroke="#888" stroke-width="1" opacity="1"/><line transform="translate(0,30)" x2="0" y2="0" stroke="#888" stroke-width="1" opacity="1"/><line transform="translate(0,50)" x2="0" y2="0" stroke="#888" stroke-width="1" opacity="1"/></g><g class="mark-rule role-axis-domain" pointer-events="none"><line transform="translate(0,0)" x2="0" y2="60" stroke="#888" stroke-width="1" opacity="1"/></g></g><path class="foreground" aria-hidden="true" d="" pointer-events="none" display="none"/></g></g></g><path class="foreground" aria-hidden="true" d="" display="none"/></g><g transform="translate(-1,492)"><path class="background" aria-hidden="true" d="M0,0h0v60h0Z"/><g><g class="mark-group role-axis" role="graphics-symbol" aria-roledescription="axis" aria-label="Y-axis for a discrete scale with 3 values: Easy, Medium, Hard"><g transform="translate(0.5,0.5)"><path class="background" aria-hidden="true" d="M0,0h0v0h0Z" pointer-events="none"/><g><g class="mark-rule role-axis-tick" pointer-events="none"><line transform="translate(0,10)" x2="0" y2="0" stroke="#888" stroke-width="1" opacity="1"/><line transform="translate(0,30)" x2="0" y2="0" stroke="#888" stroke-width="1" opacity="1"/><line transform="translate(0,50)" x2="0" y2="0" stroke="#888" stroke-width="1" opacity="1"/></g><g class="mark-rule role-axis-domain" pointer-events="none"><line transform="translate(0,0)" x2="0" y2="60" stroke="#888" stroke-width="1" opacity="1"/></g></g><path class="foreground" aria-hidden="true" d="" pointer-events="none" display="none"/></g></g></g><path class="foreground" aria-hidden="true" d="" display="none"/></g><g transform="translate(-1,574)"><path class="background" aria-hidden="true" d="M0,0h0v60h0Z"/><g><g class="mark-group role-axis" role="graphics-symbol" aria-roledescription="axis" aria-label="Y-axis for a discrete scale with 3 values: Easy, Medium, Hard"><g transform="translate(0.5,0.5)"><path class="background" aria-hidden="true" d="M0,0h0v0h0Z" pointer-events="none"/><g><g class="mark-rule role-axis-tick" pointer-events="none"><line transform="translate(0,10)" x2="0" y2="0" stroke="#888" stroke-width="1" opacity="1"/><line transform="translate(0,30)" x2="0" y2="0" stroke="#888" stroke-width="1" opacity="1"/><line transform="translate(0,50)" x2="0" y2="0" stroke="#888" stroke-width="1" opacity="1"/></g><g class="mark-rule role-axis-domain" pointer-events="none"><line transform="translate(0,0)" x2="0" y2="60" stroke="#888" stroke-width="1" opacity="1"/></g></g><path class="foreground" aria-hidden="true" d="" pointer-events="none" display="none"/></g></g></g><path class="foreground" aria-hidden="true" d="" display="none"/></g><g transform="translate(-1,656)"><path class="background" aria-hidden="true" d="M0,0h0v60h0Z"/><g><g class="mark-group role-axis" role="graphics-symbol" aria-roledescription="axis" aria-label="Y-axis for a discrete scale with 3 values: Easy, Medium, Hard"><g transform="translate(0.5,0.5)"><path class="background" aria-hidden="true" d="M0,0h0v0h0Z" pointer-events="none"/><g><g class="mark-rule role-axis-tick" pointer-events="none"><line transform="translate(0,10)" x2="0" y2="0" stroke="#888" stroke-width="1" opacity="1"/><line transform="translate(0,30)" x2="0" y2="0" stroke="#888" stroke-width="1" opacity="1"/><line transform="translate(0,50)" x2="0" y2="0" stroke="#888" stroke-width="1" opacity="1"/></g><g class="mark-rule role-axis-domain" pointer-events="none"><line transform="translate(0,0)" x2="0" y2="60" stroke="#888" stroke-width="1" opacity="1"/></g></g><path class="foreground" aria-hidden="true" d="" pointer-events="none" display="none"/></g></g></g><path class="foreground" aria-hidden="true" d="" display="none"/></g></g><g class="mark-group role-column-footer column_footer" role="graphics-object" aria-roledescription="group mark container"><g transform="translate(0,717)"><path class="background" aria-hidden="true" d="M0,0h150v0h-150Z"/><g><g class="mark-group role-axis" role="graphics-symbol" aria-roledescription="axis" aria-label="X-axis titled 'Correct SQL Proportion' for a linear scale with values from 0% to 100%"><g transform="translate(0.5,0.5)"><path class="background" aria-hidden="true" d="M0,0h0v0h0Z" pointer-events="none"/><g><g class="mark-rule role-axis-tick" pointer-events="none"><line transform="translate(0,0)" x2="0" y2="5" stroke="#888" stroke-width="1" opacity="1"/><line transform="translate(30,0)" x2="0" y2="5" stroke="#888" stroke-width="1" opacity="1"/><line transform="translate(60,0)" x2="0" y2="5" stroke="#888" stroke-width="1" opacity="1"/><line transform="translate(90,0)" x2="0" y2="5" stroke="#888" stroke-width="1" opacity="1"/><line transform="translate(120,0)" x2="0" y2="5" stroke="#888" stroke-width="1" opacity="1"/><line transform="translate(150,0)" x2="0" y2="5" stroke="#888" stroke-width="1" opacity="1"/></g><g class="mark-text role-axis-label" pointer-events="none"><text text-anchor="start" transform="translate(0,15)" font-family="sans-serif" font-size="10px" fill="#000" opacity="1">0%</text><text text-anchor="middle" transform="translate(30,15)" font-family="sans-serif" font-size="10px" fill="#000" opacity="0">20%</text><text text-anchor="middle" transform="translate(60,15)" font-family="sans-serif" font-size="10px" fill="#000" opacity="1">40%</text><text text-anchor="middle" transform="translate(90,15)" font-family="sans-serif" font-size="10px" fill="#000" opacity="0">60%</text><text text-anchor="middle" transform="translate(120,15)" font-family="sans-serif" font-size="10px" fill="#000" opacity="1">80%</text><text text-anchor="end" transform="translate(150,15)" font-family="sans-serif" font-size="10px" fill="#000" opacity="0">100%</text></g><g class="mark-rule role-axis-domain" pointer-events="none"><line transform="translate(0,0)" x2="150" y2="0" stroke="#888" stroke-width="1" opacity="1"/></g><g class="mark-text role-axis-title" pointer-events="none"><text text-anchor="middle" transform="translate(75,30)" font-family="sans-serif" font-size="11px" font-weight="bold" fill="#000" opacity="1">Correct SQL Proportion</text></g></g><path class="foreground" aria-hidden="true" d="" pointer-events="none" display="none"/></g></g></g><path class="foreground" aria-hidden="true" d="" display="none"/></g></g><g class="mark-group role-scope cell" role="graphics-object" aria-roledescription="group mark container"><g transform="translate(0,0)"><path class="background" aria-hidden="true" d="M0.5,0.5h150v60h-150Z" stroke="#ddd"/><g><g class="mark-group role-axis" aria-hidden="true"><g transform="translate(0.5,60.5)"><path class="background" aria-hidden="true" d="M0,0h0v0h0Z" pointer-events="none"/><g><g class="mark-rule role-axis-grid" pointer-events="none"><line transform="translate(0,0)" x2="0" y2="-60" stroke="#ddd" stroke-width="1" opacity="1"/><line transform="translate(30,0)" x2="0" y2="-60" stroke="#ddd" stroke-width="1" opacity="1"/><line transform="translate(60,0)" x2="0" y2="-60" stroke="#ddd" stroke-width="1" opacity="1"/><line transform="translate(90,0)" x2="0" y2="-60" stroke="#ddd" stroke-width="1" opacity="1"/><line transform="translate(120,0)" x2="0" y2="-60" stroke="#ddd" stroke-width="1" opacity="1"/><line transform="translate(150,0)" x2="0" y2="-60" stroke="#ddd" stroke-width="1" opacity="1"/></g></g><path class="foreground" aria-hidden="true" d="" pointer-events="none" display="none"/></g></g><g class="mark-rect role-mark child_marks" role="graphics-object" aria-roledescription="rect mark container"><path aria-label="Correct SQL Proportion: 100%; difficulty: Easy; sql_evaluation: Correct" role="graphics-symbol" aria-roledescription="bar" d="M0,1h150v18h-150Z" fill="#006e90" opacity="1"/><path aria-label="Correct SQL Proportion: 83%; difficulty: Hard; sql_evaluation: Correct" role="graphics-symbol" aria-roledescription="bar" d="M0,41h124.99999999999999v18h-124.99999999999999Z" fill="#006e90" opacity="1"/><path aria-label="Correct SQL Proportion: 8%; difficulty: Hard; sql_evaluation: Incorrect" role="graphics-symbol" aria-roledescription="bar" d="M124.99999999999999,41h12.500000000000014v18h-12.500000000000014Z" fill="#f18f01" opacity="1"/><path aria-label="Correct SQL Proportion: 8%; difficulty: Hard; sql_evaluation: N/A" role="graphics-symbol" aria-roledescription="bar" d="M137.5,41h12.5v18h-12.5Z" fill="#e5e5e5" opacity="1"/><path aria-label="Correct SQL Proportion: 89%; difficulty: Medium; sql_evaluation: Correct" role="graphics-symbol" aria-roledescription="bar" d="M0,21h133.33333333333331v18h-133.33333333333331Z" fill="#006e90" opacity="1"/><path aria-label="Correct SQL Proportion: 11%; difficulty: Medium; sql_evaluation: Incorrect" role="graphics-symbol" aria-roledescription="bar" d="M133.33333333333331,21h16.666666666666686v18h-16.666666666666686Z" fill="#f18f01" opacity="1"/></g></g><path class="foreground" aria-hidden="true" d="" display="none"/></g><g transform="translate(0,82)"><path class="background" aria-hidden="true" d="M0.5,0.5h150v60h-150Z" stroke="#ddd"/><g><g class="mark-group role-axis" aria-hidden="true"><g transform="translate(0.5,60.5)"><path class="background" aria-hidden="true" d="M0,0h0v0h0Z" pointer-events="none"/><g><g class="mark-rule role-axis-grid" pointer-events="none"><line transform="translate(0,0)" x2="0" y2="-60" stroke="#ddd" stroke-width="1" opacity="1"/><line transform="translate(30,0)" x2="0" y2="-60" stroke="#ddd" stroke-width="1" opacity="1"/><line transform="translate(60,0)" x2="0" y2="-60" stroke="#ddd" stroke-width="1" opacity="1"/><line transform="translate(90,0)" x2="0" y2="-60" stroke="#ddd" stroke-width="1" opacity="1"/><line transform="translate(120,0)" x2="0" y2="-60" stroke="#ddd" stroke-width="1" opacity="1"/><line transform="translate(150,0)" x2="0" y2="-60" stroke="#ddd" stroke-width="1" opacity="1"/></g></g><path class="foreground" aria-hidden="true" d="" pointer-events="none" display="none"/></g></g><g class="mark-rect role-mark child_marks" role="graphics-object" aria-roledescription="rect mark container"><path aria-label="Correct SQL Proportion: 100%; difficulty: Easy; sql_evaluation: Correct" role="graphics-symbol" aria-roledescription="bar" d="M0,1h150v18h-150Z" fill="#006e90" opacity="1"/><path aria-label="Correct SQL Proportion: 50%; difficulty: Hard; sql_evaluation: Correct" role="graphics-symbol" aria-roledescription="bar" d="M0,41h75v18h-75Z" fill="#006e90" opacity="1"/><path aria-label="Correct SQL Proportion: 25%; difficulty: Hard; sql_evaluation: Incorrect" role="graphics-symbol" aria-roledescription="bar" d="M75,41h37.5v18h-37.5Z" fill="#f18f01" opacity="1"/><path aria-label="Correct SQL Proportion: 25%; difficulty: Hard; sql_evaluation: N/A" role="graphics-symbol" aria-roledescription="bar" d="M112.5,41h37.5v18h-37.5Z" fill="#e5e5e5" opacity="1"/><path aria-label="Correct SQL Proportion: 100%; difficulty: Medium; sql_evaluation: Correct" role="graphics-symbol" aria-roledescription="bar" d="M0,21h150v18h-150Z" fill="#006e90" opacity="1"/></g></g><path class="foreground" aria-hidden="true" d="" display="none"/></g><g transform="translate(0,164)"><path class="background" aria-hidden="true" d="M0.5,0.5h150v60h-150Z" stroke="#ddd"/><g><g class="mark-group role-axis" aria-hidden="true"><g transform="translate(0.5,60.5)"><path class="background" aria-hidden="true" d="M0,0h0v0h0Z" pointer-events="none"/><g><g class="mark-rule role-axis-grid" pointer-events="none"><line transform="translate(0,0)" x2="0" y2="-60" stroke="#ddd" stroke-width="1" opacity="1"/><line transform="translate(30,0)" x2="0" y2="-60" stroke="#ddd" stroke-width="1" opacity="1"/><line transform="translate(60,0)" x2="0" y2="-60" stroke="#ddd" stroke-width="1" opacity="1"/><line transform="translate(90,0)" x2="0" y2="-60" stroke="#ddd" stroke-width="1" opacity="1"/><line transform="translate(120,0)" x2="0" y2="-60" stroke="#ddd" stroke-width="1" opacity="1"/><line transform="translate(150,0)" x2="0" y2="-60" stroke="#ddd" stroke-width="1" opacity="1"/></g></g><path class="foreground" aria-hidden="true" d="" pointer-events="none" display="none"/></g></g><g class="mark-rect role-mark child_marks" role="graphics-object" aria-roledescription="rect mark container"><path aria-label="Correct SQL Proportion: 78%; difficulty: Easy; sql_evaluation: Correct" role="graphics-symbol" aria-roledescription="bar" d="M0,1h116.66666666666666v18h-116.66666666666666Z" fill="#006e90" opacity="1"/><path aria-label="Correct SQL Proportion: 11%; difficulty: Easy; sql_evaluation: Incorrect" role="graphics-symbol" aria-roledescription="bar" d="M116.66666666666666,1h16.666666666666657v18h-16.666666666666657Z" fill="#f18f01" opacity="1"/><path aria-label="Correct SQL Proportion: 11%; difficulty: Easy; sql_evaluation: N/A" role="graphics-symbol" aria-roledescription="bar" d="M133.33333333333331,1h16.666666666666686v18h-16.666666666666686Z" fill="#e5e5e5" opacity="1"/><path aria-label="Correct SQL Proportion: 25%; difficulty: Hard; sql_evaluation: Correct" role="graphics-symbol" aria-roledescription="bar" d="M0,41h37.5v18h-37.5Z" fill="#006e90" opacity="1"/><path aria-label="Correct SQL Proportion: 33%; difficulty: Hard; sql_evaluation: Incorrect" role="graphics-symbol" aria-roledescription="bar" d="M37.5,41h49.999999999999986v18h-49.999999999999986Z" fill="#f18f01" opacity="1"/><path aria-label="Correct SQL Proportion: 42%; difficulty: Hard; sql_evaluation: N/A" role="graphics-symbol" aria-roledescription="bar" d="M87.49999999999999,41h62.500000000000014v18h-62.500000000000014Z" fill="#e5e5e5" opacity="1"/><path aria-label="Correct SQL Proportion: 67%; difficulty: Medium; sql_evaluation: Correct" role="graphics-symbol" aria-roledescription="bar" d="M0,21h100v18h-100Z" fill="#006e90" opacity="1"/><path aria-label="Correct SQL Proportion: 11%; difficulty: Medium; sql_evaluation: Incorrect" role="graphics-symbol" aria-roledescription="bar" d="M100,21h16.666666666666657v18h-16.666666666666657Z" fill="#f18f01" opacity="1"/><path aria-label="Correct SQL Proportion: 22%; difficulty: Medium; sql_evaluation: N/A" role="graphics-symbol" aria-roledescription="bar" d="M116.66666666666666,21h33.33333333333334v18h-33.33333333333334Z" fill="#e5e5e5" opacity="1"/></g></g><path class="foreground" aria-hidden="true" d="" display="none"/></g><g transform="translate(0,246)"><path class="background" aria-hidden="true" d="M0.5,0.5h150v60h-150Z" stroke="#ddd"/><g><g class="mark-group role-axis" aria-hidden="true"><g transform="translate(0.5,60.5)"><path class="background" aria-hidden="true" d="M0,0h0v0h0Z" pointer-events="none"/><g><g class="mark-rule role-axis-grid" pointer-events="none"><line transform="translate(0,0)" x2="0" y2="-60" stroke="#ddd" stroke-width="1" opacity="1"/><line transform="translate(30,0)" x2="0" y2="-60" stroke="#ddd" stroke-width="1" opacity="1"/><line transform="translate(60,0)" x2="0" y2="-60" stroke="#ddd" stroke-width="1" opacity="1"/><line transform="translate(90,0)" x2="0" y2="-60" stroke="#ddd" stroke-width="1" opacity="1"/><line transform="translate(120,0)" x2="0" y2="-60" stroke="#ddd" stroke-width="1" opacity="1"/><line transform="translate(150,0)" x2="0" y2="-60" stroke="#ddd" stroke-width="1" opacity="1"/></g></g><path class="foreground" aria-hidden="true" d="" pointer-events="none" display="none"/></g></g><g class="mark-rect role-mark child_marks" role="graphics-object" aria-roledescription="rect mark container"><path aria-label="Correct SQL Proportion: 44%; difficulty: Easy; sql_evaluation: Incorrect" role="graphics-symbol" aria-roledescription="bar" d="M0,1h66.66666666666666v18h-66.66666666666666Z" fill="#f18f01" opacity="1"/><path aria-label="Correct SQL Proportion: 56%; difficulty: Easy; sql_evaluation: N/A" role="graphics-symbol" aria-roledescription="bar" d="M66.66666666666666,1h83.33333333333334v18h-83.33333333333334Z" fill="#e5e5e5" opacity="1"/><path aria-label="Correct SQL Proportion: 92%; difficulty: Hard; sql_evaluation: Incorrect" role="graphics-symbol" aria-roledescription="bar" d="M0,41h137.5v18h-137.5Z" fill="#f18f01" opacity="1"/><path aria-label="Correct SQL Proportion: 8%; difficulty: Hard; sql_evaluation: N/A" role="graphics-symbol" aria-roledescription="bar" d="M137.5,41h12.5v18h-12.5Z" fill="#e5e5e5" opacity="1"/><path aria-label="Correct SQL Proportion: 22%; difficulty: Medium; sql_evaluation: Incorrect" role="graphics-symbol" aria-roledescription="bar" d="M0,21h33.33333333333333v18h-33.33333333333333Z" fill="#f18f01" opacity="1"/><path aria-label="Correct SQL Proportion: 78%; difficulty: Medium; sql_evaluation: N/A" role="graphics-symbol" aria-roledescription="bar" d="M33.33333333333333,21h116.66666666666667v18h-116.66666666666667Z" fill="#e5e5e5" opacity="1"/></g></g><path class="foreground" aria-hidden="true" d="" display="none"/></g><g transform="translate(0,328)"><path class="background" aria-hidden="true" d="M0.5,0.5h150v60h-150Z" stroke="#ddd"/><g><g class="mark-group role-axis" aria-hidden="true"><g transform="translate(0.5,60.5)"><path class="background" aria-hidden="true" d="M0,0h0v0h0Z" pointer-events="none"/><g><g class="mark-rule role-axis-grid" pointer-events="none"><line transform="translate(0,0)" x2="0" y2="-60" stroke="#ddd" stroke-width="1" opacity="1"/><line transform="translate(30,0)" x2="0" y2="-60" stroke="#ddd" stroke-width="1" opacity="1"/><line transform="translate(60,0)" x2="0" y2="-60" stroke="#ddd" stroke-width="1" opacity="1"/><line transform="translate(90,0)" x2="0" y2="-60" stroke="#ddd" stroke-width="1" opacity="1"/><line transform="translate(120,0)" x2="0" y2="-60" stroke="#ddd" stroke-width="1" opacity="1"/><line transform="translate(150,0)" x2="0" y2="-60" stroke="#ddd" stroke-width="1" opacity="1"/></g></g><path class="foreground" aria-hidden="true" d="" pointer-events="none" display="none"/></g></g><g class="mark-rect role-mark child_marks" role="graphics-object" aria-roledescription="rect mark container"><path aria-label="Correct SQL Proportion: 22%; difficulty: Easy; sql_evaluation: Correct" role="graphics-symbol" aria-roledescription="bar" d="M0,1h33.33333333333333v18h-33.33333333333333Z" fill="#006e90" opacity="1"/><path aria-label="Correct SQL Proportion: 22%; difficulty: Easy; sql_evaluation: Incorrect" role="graphics-symbol" aria-roledescription="bar" d="M33.33333333333333,1h33.33333333333333v18h-33.33333333333333Z" fill="#f18f01" opacity="1"/><path aria-label="Correct SQL Proportion: 56%; difficulty: Easy; sql_evaluation: N/A" role="graphics-symbol" aria-roledescription="bar" d="M66.66666666666666,1h83.33333333333334v18h-83.33333333333334Z" fill="#e5e5e5" opacity="1"/><path aria-label="Correct SQL Proportion: 33%; difficulty: Hard; sql_evaluation: Incorrect" role="graphics-symbol" aria-roledescription="bar" d="M0,41h50v18h-50Z" fill="#f18f01" opacity="1"/><path aria-label="Correct SQL Proportion: 67%; difficulty: Hard; sql_evaluation: N/A" role="graphics-symbol" aria-roledescription="bar" d="M50,41h100v18h-100Z" fill="#e5e5e5" opacity="1"/><path aria-label="Correct SQL Proportion: 44%; difficulty: Medium; sql_evaluation: Incorrect" role="graphics-symbol" aria-roledescription="bar" d="M0,21h66.66666666666666v18h-66.66666666666666Z" fill="#f18f01" opacity="1"/><path aria-label="Correct SQL Proportion: 56%; difficulty: Medium; sql_evaluation: N/A" role="graphics-symbol" aria-roledescription="bar" d="M66.66666666666666,21h83.33333333333334v18h-83.33333333333334Z" fill="#e5e5e5" opacity="1"/></g></g><path class="foreground" aria-hidden="true" d="" display="none"/></g><g transform="translate(0,410)"><path class="background" aria-hidden="true" d="M0.5,0.5h150v60h-150Z" stroke="#ddd"/><g><g class="mark-group role-axis" aria-hidden="true"><g transform="translate(0.5,60.5)"><path class="background" aria-hidden="true" d="M0,0h0v0h0Z" pointer-events="none"/><g><g class="mark-rule role-axis-grid" pointer-events="none"><line transform="translate(0,0)" x2="0" y2="-60" stroke="#ddd" stroke-width="1" opacity="1"/><line transform="translate(30,0)" x2="0" y2="-60" stroke="#ddd" stroke-width="1" opacity="1"/><line transform="translate(60,0)" x2="0" y2="-60" stroke="#ddd" stroke-width="1" opacity="1"/><line transform="translate(90,0)" x2="0" y2="-60" stroke="#ddd" stroke-width="1" opacity="1"/><line transform="translate(120,0)" x2="0" y2="-60" stroke="#ddd" stroke-width="1" opacity="1"/><line transform="translate(150,0)" x2="0" y2="-60" stroke="#ddd" stroke-width="1" opacity="1"/></g></g><path class="foreground" aria-hidden="true" d="" pointer-events="none" display="none"/></g></g><g class="mark-rect role-mark child_marks" role="graphics-object" aria-roledescription="rect mark container"><path aria-label="Correct SQL Proportion: 22%; difficulty: Easy; sql_evaluation: Correct" role="graphics-symbol" aria-roledescription="bar" d="M0,1h33.33333333333333v18h-33.33333333333333Z" fill="#006e90" opacity="1"/><path aria-label="Correct SQL Proportion: 33%; difficulty: Easy; sql_evaluation: Incorrect" role="graphics-symbol" aria-roledescription="bar" d="M33.33333333333333,1h50.000000000000014v18h-50.000000000000014Z" fill="#f18f01" opacity="1"/><path aria-label="Correct SQL Proportion: 44%; difficulty: Easy; sql_evaluation: N/A" role="graphics-symbol" aria-roledescription="bar" d="M83.33333333333334,1h66.66666666666666v18h-66.66666666666666Z" fill="#e5e5e5" opacity="1"/><path aria-label="Correct SQL Proportion: 25%; difficulty: Hard; sql_evaluation: Incorrect" role="graphics-symbol" aria-roledescription="bar" d="M0,41h37.5v18h-37.5Z" fill="#f18f01" opacity="1"/><path aria-label="Correct SQL Proportion: 75%; difficulty: Hard; sql_evaluation: N/A" role="graphics-symbol" aria-roledescription="bar" d="M37.5,41h112.5v18h-112.5Z" fill="#e5e5e5" opacity="1"/><path aria-label="Correct SQL Proportion: 11%; difficulty: Medium; sql_evaluation: Correct" role="graphics-symbol" aria-roledescription="bar" d="M0,21h16.666666666666664v18h-16.666666666666664Z" fill="#006e90" opacity="1"/><path aria-label="Correct SQL Proportion: 22%; difficulty: Medium; sql_evaluation: Incorrect" role="graphics-symbol" aria-roledescription="bar" d="M16.666666666666664,21h33.333333333333336v18h-33.333333333333336Z" fill="#f18f01" opacity="1"/><path aria-label="Correct SQL Proportion: 67%; difficulty: Medium; sql_evaluation: N/A" role="graphics-symbol" aria-roledescription="bar" d="M50,21h100v18h-100Z" fill="#e5e5e5" opacity="1"/></g></g><path class="foreground" aria-hidden="true" d="" display="none"/></g><g transform="translate(0,492)"><path class="background" aria-hidden="true" d="M0.5,0.5h150v60h-150Z" stroke="#ddd"/><g><g class="mark-group role-axis" aria-hidden="true"><g transform="translate(0.5,60.5)"><path class="background" aria-hidden="true" d="M0,0h0v0h0Z" pointer-events="none"/><g><g class="mark-rule role-axis-grid" pointer-events="none"><line transform="translate(0,0)" x2="0" y2="-60" stroke="#ddd" stroke-width="1" opacity="1"/><line transform="translate(30,0)" x2="0" y2="-60" stroke="#ddd" stroke-width="1" opacity="1"/><line transform="translate(60,0)" x2="0" y2="-60" stroke="#ddd" stroke-width="1" opacity="1"/><line transform="translate(90,0)" x2="0" y2="-60" stroke="#ddd" stroke-width="1" opacity="1"/><line transform="translate(120,0)" x2="0" y2="-60" stroke="#ddd" stroke-width="1" opacity="1"/><line transform="translate(150,0)" x2="0" y2="-60" stroke="#ddd" stroke-width="1" opacity="1"/></g></g><path class="foreground" aria-hidden="true" d="" pointer-events="none" display="none"/></g></g><g class="mark-rect role-mark child_marks" role="graphics-object" aria-roledescription="rect mark container"><path aria-label="Correct SQL Proportion: 33%; difficulty: Easy; sql_evaluation: Correct" role="graphics-symbol" aria-roledescription="bar" d="M0,1h50v18h-50Z" fill="#006e90" opacity="1"/><path aria-label="Correct SQL Proportion: 11%; difficulty: Easy; sql_evaluation: Incorrect" role="graphics-symbol" aria-roledescription="bar" d="M50,1h16.666666666666657v18h-16.666666666666657Z" fill="#f18f01" opacity="1"/><path aria-label="Correct SQL Proportion: 56%; difficulty: Easy; sql_evaluation: N/A" role="graphics-symbol" aria-roledescription="bar" d="M66.66666666666666,1h83.33333333333334v18h-83.33333333333334Z" fill="#e5e5e5" opacity="1"/><path aria-label="Correct SQL Proportion: 25%; difficulty: Hard; sql_evaluation: Incorrect" role="graphics-symbol" aria-roledescription="bar" d="M0,41h37.5v18h-37.5Z" fill="#f18f01" opacity="1"/><path aria-label="Correct SQL Proportion: 75%; difficulty: Hard; sql_evaluation: N/A" role="graphics-symbol" aria-roledescription="bar" d="M37.5,41h112.5v18h-112.5Z" fill="#e5e5e5" opacity="1"/><path aria-label="Correct SQL Proportion: 11%; difficulty: Medium; sql_evaluation: Incorrect" role="graphics-symbol" aria-roledescription="bar" d="M0,21h16.666666666666664v18h-16.666666666666664Z" fill="#f18f01" opacity="1"/><path aria-label="Correct SQL Proportion: 89%; difficulty: Medium; sql_evaluation: N/A" role="graphics-symbol" aria-roledescription="bar" d="M16.666666666666664,21h133.33333333333334v18h-133.33333333333334Z" fill="#e5e5e5" opacity="1"/></g></g><path class="foreground" aria-hidden="true" d="" display="none"/></g><g transform="translate(0,574)"><path class="background" aria-hidden="true" d="M0.5,0.5h150v60h-150Z" stroke="#ddd"/><g><g class="mark-group role-axis" aria-hidden="true"><g transform="translate(0.5,60.5)"><path class="background" aria-hidden="true" d="M0,0h0v0h0Z" pointer-events="none"/><g><g class="mark-rule role-axis-grid" pointer-events="none"><line transform="translate(0,0)" x2="0" y2="-60" stroke="#ddd" stroke-width="1" opacity="1"/><line transform="translate(30,0)" x2="0" y2="-60" stroke="#ddd" stroke-width="1" opacity="1"/><line transform="translate(60,0)" x2="0" y2="-60" stroke="#ddd" stroke-width="1" opacity="1"/><line transform="translate(90,0)" x2="0" y2="-60" stroke="#ddd" stroke-width="1" opacity="1"/><line transform="translate(120,0)" x2="0" y2="-60" stroke="#ddd" stroke-width="1" opacity="1"/><line transform="translate(150,0)" x2="0" y2="-60" stroke="#ddd" stroke-width="1" opacity="1"/></g></g><path class="foreground" aria-hidden="true" d="" pointer-events="none" display="none"/></g></g><g class="mark-rect role-mark child_marks" role="graphics-object" aria-roledescription="rect mark container"><path aria-label="Correct SQL Proportion: 11%; difficulty: Easy; sql_evaluation: Correct" role="graphics-symbol" aria-roledescription="bar" d="M0,1h16.666666666666664v18h-16.666666666666664Z" fill="#006e90" opacity="1"/><path aria-label="Correct SQL Proportion: 33%; difficulty: Easy; sql_evaluation: Incorrect" role="graphics-symbol" aria-roledescription="bar" d="M16.666666666666664,1h49.99999999999999v18h-49.99999999999999Z" fill="#f18f01" opacity="1"/><path aria-label="Correct SQL Proportion: 56%; difficulty: Easy; sql_evaluation: N/A" role="graphics-symbol" aria-roledescription="bar" d="M66.66666666666666,1h83.33333333333334v18h-83.33333333333334Z" fill="#e5e5e5" opacity="1"/><path aria-label="Correct SQL Proportion: 8%; difficulty: Hard; sql_evaluation: Incorrect" role="graphics-symbol" aria-roledescription="bar" d="M0,41h12.5v18h-12.5Z" fill="#f18f01" opacity="1"/><path aria-label="Correct SQL Proportion: 92%; difficulty: Hard; sql_evaluation: N/A" role="graphics-symbol" aria-roledescription="bar" d="M12.5,41h137.5v18h-137.5Z" fill="#e5e5e5" opacity="1"/><path aria-label="Correct SQL Proportion: 22%; difficulty: Medium; sql_evaluation: Incorrect" role="graphics-symbol" aria-roledescription="bar" d="M0,21h33.33333333333333v18h-33.33333333333333Z" fill="#f18f01" opacity="1"/><path aria-label="Correct SQL Proportion: 78%; difficulty: Medium; sql_evaluation: N/A" role="graphics-symbol" aria-roledescription="bar" d="M33.33333333333333,21h116.66666666666667v18h-116.66666666666667Z" fill="#e5e5e5" opacity="1"/></g></g><path class="foreground" aria-hidden="true" d="" display="none"/></g><g transform="translate(0,656)"><path class="background" aria-hidden="true" d="M0.5,0.5h150v60h-150Z" stroke="#ddd"/><g><g class="mark-group role-axis" aria-hidden="true"><g transform="translate(0.5,60.5)"><path class="background" aria-hidden="true" d="M0,0h0v0h0Z" pointer-events="none"/><g><g class="mark-rule role-axis-grid" pointer-events="none"><line transform="translate(0,0)" x2="0" y2="-60" stroke="#ddd" stroke-width="1" opacity="1"/><line transform="translate(30,0)" x2="0" y2="-60" stroke="#ddd" stroke-width="1" opacity="1"/><line transform="translate(60,0)" x2="0" y2="-60" stroke="#ddd" stroke-width="1" opacity="1"/><line transform="translate(90,0)" x2="0" y2="-60" stroke="#ddd" stroke-width="1" opacity="1"/><line transform="translate(120,0)" x2="0" y2="-60" stroke="#ddd" stroke-width="1" opacity="1"/><line transform="translate(150,0)" x2="0" y2="-60" stroke="#ddd" stroke-width="1" opacity="1"/></g></g><path class="foreground" aria-hidden="true" d="" pointer-events="none" display="none"/></g></g><g class="mark-rect role-mark child_marks" role="graphics-object" aria-roledescription="rect mark container"><path aria-label="Correct SQL Proportion: 22%; difficulty: Easy; sql_evaluation: Correct" role="graphics-symbol" aria-roledescription="bar" d="M0,1h33.33333333333333v18h-33.33333333333333Z" fill="#006e90" opacity="1"/><path aria-label="Correct SQL Proportion: 22%; difficulty: Easy; sql_evaluation: Incorrect" role="graphics-symbol" aria-roledescription="bar" d="M33.33333333333333,1h33.33333333333333v18h-33.33333333333333Z" fill="#f18f01" opacity="1"/><path aria-label="Correct SQL Proportion: 56%; difficulty: Easy; sql_evaluation: N/A" role="graphics-symbol" aria-roledescription="bar" d="M66.66666666666666,1h83.33333333333334v18h-83.33333333333334Z" fill="#e5e5e5" opacity="1"/><path aria-label="Correct SQL Proportion: 100%; difficulty: Hard; sql_evaluation: N/A" role="graphics-symbol" aria-roledescription="bar" d="M0,41h150v18h-150Z" fill="#e5e5e5" opacity="1"/><path aria-label="Correct SQL Proportion: 100%; difficulty: Medium; sql_evaluation: N/A" role="graphics-symbol" aria-roledescription="bar" d="M0,21h150v18h-150Z" fill="#e5e5e5" opacity="1"/></g></g><path class="foreground" aria-hidden="true" d="" display="none"/></g></g><g class="mark-group role-legend" role="graphics-symbol" aria-roledescription="legend" aria-label="Symbol legend for fill color with 3 values: Correct, Incorrect, N/A"><g transform="translate(0,-31)"><path class="background" aria-hidden="true" d="M0,0h176v12h-176Z" pointer-events="none"/><g><g class="mark-group role-legend-entry"><g transform="translate(0,0)"><path class="background" aria-hidden="true" d="M0,0h0v0h0Z" pointer-events="none"/><g><g class="mark-group role-scope" role="graphics-object" aria-roledescription="group mark container"><g transform="translate(0,0)"><path class="background" aria-hidden="true" d="M0,0h55.33984375v12h-55.33984375Z" pointer-events="none" opacity="1"/><g><g class="mark-symbol role-legend-symbol" pointer-events="none"><path transform="translate(6,6)" d="M-5,-5h10v10h-10Z" fill="#006e90" stroke-width="1.5" opacity="1"/></g><g class="mark-text role-legend-label" pointer-events="none"><text text-anchor="start" transform="translate(16,10)" font-family="sans-serif" font-size="12px" fill="#000" opacity="1">Correct</text></g></g><path class="foreground" aria-hidden="true" d="" pointer-events="none" display="none"/></g><g transform="translate(66,0)"><path class="background" aria-hidden="true" d="M0,0h62.681640625v12h-62.681640625Z" pointer-events="none" opacity="1"/><g><g class="mark-symbol role-legend-symbol" pointer-events="none"><path transform="translate(6,6)" d="M-5,-5h10v10h-10Z" fill="#f18f01" stroke-width="1.5" opacity="1"/></g><g class="mark-text role-legend-label" pointer-events="none"><text text-anchor="start" transform="translate(16,10)" font-family="sans-serif" font-size="12px" fill="#000" opacity="1">Incorrect</text></g></g><path class="foreground" aria-hidden="true" d="" pointer-events="none" display="none"/></g><g transform="translate(139,0)"><path class="background" aria-hidden="true" d="M0,0h36.00390625v12h-36.00390625Z" pointer-events="none" opacity="1"/><g><g class="mark-symbol role-legend-symbol" pointer-events="none"><path transform="translate(6,6)" d="M-5,-5h10v10h-10Z" fill="#e5e5e5" stroke-width="1.5" opacity="1"/></g><g class="mark-text role-legend-label" pointer-events="none"><text text-anchor="start" transform="translate(16,10)" font-family="sans-serif" font-size="12px" fill="#000" opacity="1">N/A</text></g></g><path class="foreground" aria-hidden="true" d="" pointer-events="none" display="none"/></g></g></g><path class="foreground" aria-hidden="true" d="" pointer-events="none" display="none"/></g></g></g><path class="foreground" aria-hidden="true" d="" pointer-events="none" display="none"/></g></g><g class="mark-group role-title"><g transform="translate(-2,-48)"><path class="background" aria-hidden="true" d="M0,0h0v0h0Z" pointer-events="none"/><g><g class="mark-text role-title-text" role="graphics-symbol" aria-roledescription="title" aria-label="Title text 'B. SQL Evaluation'" pointer-events="none"><text text-anchor="start" transform="translate(0,10)" font-family="sans-serif" font-size="13px" font-weight="bold" fill="#000" opacity="1">B. SQL Evaluation</text></g></g><path class="foreground" aria-hidden="true" d="" pointer-events="none" display="none"/></g></g></g><path class="foreground" aria-hidden="true" d="" display="none"/></g></g></g></svg>